<svg id="visual" viewBox="0 0 350 451" width="350" height="451" xmlns="http://www.w3.org/2000/svg" xmlns:xlink="http://www.w3.org/1999/xlink" version="1.1"><rect x="0" y="0" width="350" height="451" fill="#4d4d4a"></rect><defs><linearGradient id="grad1_0" x1="0%" y1="100%" x2="100%" y2="0%"><stop offset="30%" stop-color="#000000" stop-opacity="1"></stop><stop offset="70%" stop-color="#000000" stop-opacity="1"></stop></linearGradient></defs><defs><linearGradient id="grad1_1" x1="0%" y1="100%" x2="100%" y2="0%"><stop offset="30%" stop-color="#000000" stop-opacity="1"></stop><stop offset="70%" stop-color="#12120f" stop-opacity="1"></stop></linearGradient></defs><defs><linearGradient id="grad1_2" x1="0%" y1="100%" x2="100%" y2="0%"><stop offset="30%" stop-color="#1d1d1b" stop-opacity="1"></stop><stop offset="70%" stop-color="#12120f" stop-opacity="1"></stop></linearGradient></defs><defs><linearGradient id="grad1_3" x1="0%" y1="100%" x2="100%" y2="0%"><stop offset="30%" stop-color="#1d1d1b" stop-opacity="1"></stop><stop offset="70%" stop-color="#292926" stop-opacity="1"></stop></linearGradient></defs><defs><linearGradient id="grad1_4" x1="0%" y1="100%" x2="100%" y2="0%"><stop offset="30%" stop-color="#343432" stop-opacity="1"></stop><stop offset="70%" stop-color="#292926" stop-opacity="1"></stop></linearGradient></defs><defs><linearGradient id="grad1_5" x1="0%" y1="100%" x2="100%" y2="0%"><stop offset="30%" stop-color="#343432" stop-opacity="1"></stop><stop offset="70%" stop-color="#40403e" stop-opacity="1"></stop></linearGradient></defs><defs><linearGradient id="grad1_6" x1="0%" y1="100%" x2="100%" y2="0%"><stop offset="30%" stop-color="#4d4d4a" stop-opacity="1"></stop><stop offset="70%" stop-color="#40403e" stop-opacity="1"></stop></linearGradient></defs><defs><linearGradient id="grad2_0" x1="0%" y1="100%" x2="100%" y2="0%"><stop offset="30%" stop-color="#000000" stop-opacity="1"></stop><stop offset="70%" stop-color="#000000" stop-opacity="1"></stop></linearGradient></defs><defs><linearGradient id="grad2_1" x1="0%" y1="100%" x2="100%" y2="0%"><stop offset="30%" stop-color="#12120f" stop-opacity="1"></stop><stop offset="70%" stop-color="#000000" stop-opacity="1"></stop></linearGradient></defs><defs><linearGradient id="grad2_2" x1="0%" y1="100%" x2="100%" y2="0%"><stop offset="30%" stop-color="#12120f" stop-opacity="1"></stop><stop offset="70%" stop-color="#1d1d1b" stop-opacity="1"></stop></linearGradient></defs><defs><linearGradient id="grad2_3" x1="0%" y1="100%" x2="100%" y2="0%"><stop offset="30%" stop-color="#292926" stop-opacity="1"></stop><stop offset="70%" stop-color="#1d1d1b" stop-opacity="1"></stop></linearGradient></defs><defs><linearGradient id="grad2_4" x1="0%" y1="100%" x2="100%" y2="0%"><stop offset="30%" stop-color="#292926" stop-opacity="1"></stop><stop offset="70%" stop-color="#343432" stop-opacity="1"></stop></linearGradient></defs><defs><linearGradient id="grad2_5" x1="0%" y1="100%" x2="100%" y2="0%"><stop offset="30%" stop-color="#40403e" stop-opacity="1"></stop><stop offset="70%" stop-color="#343432" stop-opacity="1"></stop></linearGradient></defs><defs><linearGradient id="grad2_6" x1="0%" y1="100%" x2="100%" y2="0%"><stop offset="30%" stop-color="#40403e" stop-opacity="1"></stop><stop offset="70%" stop-color="#4d4d4a" stop-opacity="1"></stop></linearGradient></defs><g transform="translate(350, 451)"><path d="M-283 0C-264.3 -21.3 -245.6 -42.5 -231.8 -62.1C-218 -81.7 -209.1 -99.6 -197.5 -114C-185.8 -128.4 -171.3 -139.5 -160.5 -160.5C-149.7 -181.6 -142.6 -212.6 -124 -214.8C-105.4 -216.9 -75.4 -190.1 -52.8 -197C-30.2 -204 -15.1 -244.7 0 -285.4L0 0Z" fill="#474744"></path><path d="M-242.6 0C-226.5 -18.2 -210.5 -36.5 -198.7 -53.2C-186.9 -70 -179.3 -85.3 -169.2 -97.7C-159.2 -110.1 -146.8 -119.5 -137.6 -137.6C-128.3 -155.6 -122.2 -182.3 -106.3 -184.1C-90.4 -185.9 -64.6 -162.9 -45.3 -168.9C-25.9 -174.9 -13 -209.8 0 -244.7L0 0Z" fill="#3a3a37"></path><path d="M-202.1 0C-188.8 -15.2 -175.4 -30.4 -165.6 -44.4C-155.7 -58.3 -149.4 -71.1 -141 -81.4C-132.7 -91.7 -122.4 -99.6 -114.7 -114.7C-106.9 -129.7 -101.8 -151.9 -88.6 -153.4C-75.3 -154.9 -53.8 -135.8 -37.7 -140.7C-21.6 -145.7 -10.8 -174.8 0 -203.9L0 0Z" fill="#2e2e2c"></path><path d="M-161.7 0C-151 -12.2 -140.4 -24.3 -132.5 -35.5C-124.6 -46.7 -119.5 -56.9 -112.8 -65.1C-106.2 -73.4 -97.9 -79.7 -91.7 -91.7C-85.6 -103.7 -81.5 -121.5 -70.9 -122.7C-60.2 -123.9 -43.1 -108.6 -30.2 -112.6C-17.3 -116.6 -8.6 -139.8 0 -163.1L0 0Z" fill="#232320"></path><path d="M-121.3 0C-113.3 -9.1 -105.3 -18.2 -99.4 -26.6C-93.4 -35 -89.6 -42.7 -84.6 -48.9C-79.6 -55 -73.4 -59.8 -68.8 -68.8C-64.2 -77.8 -61.1 -91.1 -53.1 -92C-45.2 -93 -32.3 -81.5 -22.6 -84.4C-13 -87.4 -6.5 -104.9 0 -122.3L0 0Z" fill="#181815"></path><path d="M-80.9 0C-75.5 -6.1 -70.2 -12.2 -66.2 -17.7C-62.3 -23.3 -59.8 -28.4 -56.4 -32.6C-53.1 -36.7 -48.9 -39.8 -45.9 -45.9C-42.8 -51.9 -40.7 -60.8 -35.4 -61.4C-30.1 -62 -21.5 -54.3 -15.1 -56.3C-8.6 -58.3 -4.3 -69.9 0 -81.6L0 0Z" fill="#0a0a06"></path><path d="M-40.4 0C-37.8 -3 -35.1 -6.1 -33.1 -8.9C-31.1 -11.7 -29.9 -14.2 -28.2 -16.3C-26.5 -18.3 -24.5 -19.9 -22.9 -22.9C-21.4 -25.9 -20.4 -30.4 -17.7 -30.7C-15.1 -31 -10.8 -27.2 -7.5 -28.1C-4.3 -29.1 -2.2 -35 0 -40.8L0 0Z" fill="#000000"></path></g><g transform="translate(0, 0)"><path d="M224 0C248.4 24.4 272.9 48.8 275.7 73.9C278.6 99 259.8 124.9 231.2 133.5C202.6 142.1 164.2 133.5 147.1 147.1C130 160.7 134.3 196.5 123 213C111.7 229.6 84.7 226.8 61.6 229.9C38.5 233 19.2 242 0 251L0 0Z" fill="#474744"></path><path d="M192 0C212.9 20.9 233.9 41.8 236.3 63.3C238.8 84.9 222.7 107 198.2 114.4C173.7 121.8 140.7 114.4 126.1 126.1C111.4 137.7 115.1 168.4 105.4 182.6C95.7 196.8 72.6 194.4 52.8 197C33 199.7 16.5 207.4 0 215.1L0 0Z" fill="#3a3a37"></path><path d="M160 0C177.5 17.4 194.9 34.8 196.9 52.8C199 70.7 185.6 89.2 165.2 95.4C144.7 101.5 117.3 95.3 105.1 105.1C92.9 114.8 95.9 140.4 87.9 152.2C79.8 164 60.5 162 44 164.2C27.5 166.4 13.7 172.9 0 179.3L0 0Z" fill="#2e2e2c"></path><path d="M128 0C142 13.9 155.9 27.9 157.6 42.2C159.2 56.6 148.5 71.4 132.1 76.3C115.8 81.2 93.8 76.3 84 84C74.3 91.8 76.8 112.3 70.3 121.7C63.8 131.2 48.4 129.6 35.2 131.4C22 133.1 11 138.3 0 143.4L0 0Z" fill="#232320"></path><path d="M96 0C106.5 10.4 116.9 20.9 118.2 31.7C119.4 42.4 111.4 53.5 99.1 57.2C86.8 60.9 70.4 57.2 63 63C55.7 68.9 57.6 84.2 52.7 91.3C47.9 98.4 36.3 97.2 26.4 98.5C16.5 99.9 8.2 103.7 0 107.6L0 0Z" fill="#181815"></path><path d="M64 0C71 7 78 13.9 78.8 21.1C79.6 28.3 74.2 35.7 66.1 38.1C57.9 40.6 46.9 38.1 42 42C37.1 45.9 38.4 56.1 35.1 60.9C31.9 65.6 24.2 64.8 17.6 65.7C11 66.6 5.5 69.1 0 71.7L0 0Z" fill="#0a0a06"></path><path d="M32 0C35.5 3.5 39 7 39.4 10.6C39.8 14.1 37.1 17.8 33 19.1C28.9 20.3 23.5 19.1 21 21C18.6 23 19.2 28.1 17.6 30.4C16 32.8 12.1 32.4 8.8 32.8C5.5 33.3 2.7 34.6 0 35.9L0 0Z" fill="#000000"></path></g></svg>