<svg id="visual" viewBox="0 0 350 451" width="350" height="451" xmlns="http://www.w3.org/2000/svg" xmlns:xlink="http://www.w3.org/1999/xlink" version="1.1"><rect x="0" y="0" width="350" height="451" fill="#2388fa"></rect><defs><linearGradient id="grad1_0" x1="0%" y1="100%" x2="100%" y2="0%"><stop offset="30%" stop-color="#11009e" stop-opacity="1"></stop><stop offset="70%" stop-color="#11009e" stop-opacity="1"></stop></linearGradient></defs><defs><linearGradient id="grad1_1" x1="0%" y1="100%" x2="100%" y2="0%"><stop offset="30%" stop-color="#11009e" stop-opacity="1"></stop><stop offset="70%" stop-color="#0128b3" stop-opacity="1"></stop></linearGradient></defs><defs><linearGradient id="grad1_2" x1="0%" y1="100%" x2="100%" y2="0%"><stop offset="30%" stop-color="#0042c7" stop-opacity="1"></stop><stop offset="70%" stop-color="#0128b3" stop-opacity="1"></stop></linearGradient></defs><defs><linearGradient id="grad1_3" x1="0%" y1="100%" x2="100%" y2="0%"><stop offset="30%" stop-color="#0042c7" stop-opacity="1"></stop><stop offset="70%" stop-color="#005ad9" stop-opacity="1"></stop></linearGradient></defs><defs><linearGradient id="grad1_4" x1="0%" y1="100%" x2="100%" y2="0%"><stop offset="30%" stop-color="#0471ea" stop-opacity="1"></stop><stop offset="70%" stop-color="#005ad9" stop-opacity="1"></stop></linearGradient></defs><defs><linearGradient id="grad1_5" x1="0%" y1="100%" x2="100%" y2="0%"><stop offset="30%" stop-color="#0471ea" stop-opacity="1"></stop><stop offset="70%" stop-color="#2388fa" stop-opacity="1"></stop></linearGradient></defs><defs><linearGradient id="grad2_0" x1="0%" y1="100%" x2="100%" y2="0%"><stop offset="30%" stop-color="#11009e" stop-opacity="1"></stop><stop offset="70%" stop-color="#11009e" stop-opacity="1"></stop></linearGradient></defs><defs><linearGradient id="grad2_1" x1="0%" y1="100%" x2="100%" y2="0%"><stop offset="30%" stop-color="#0128b3" stop-opacity="1"></stop><stop offset="70%" stop-color="#11009e" stop-opacity="1"></stop></linearGradient></defs><defs><linearGradient id="grad2_2" x1="0%" y1="100%" x2="100%" y2="0%"><stop offset="30%" stop-color="#0128b3" stop-opacity="1"></stop><stop offset="70%" stop-color="#0042c7" stop-opacity="1"></stop></linearGradient></defs><defs><linearGradient id="grad2_3" x1="0%" y1="100%" x2="100%" y2="0%"><stop offset="30%" stop-color="#005ad9" stop-opacity="1"></stop><stop offset="70%" stop-color="#0042c7" stop-opacity="1"></stop></linearGradient></defs><defs><linearGradient id="grad2_4" x1="0%" y1="100%" x2="100%" y2="0%"><stop offset="30%" stop-color="#005ad9" stop-opacity="1"></stop><stop offset="70%" stop-color="#0471ea" stop-opacity="1"></stop></linearGradient></defs><defs><linearGradient id="grad2_5" x1="0%" y1="100%" x2="100%" y2="0%"><stop offset="30%" stop-color="#2388fa" stop-opacity="1"></stop><stop offset="70%" stop-color="#0471ea" stop-opacity="1"></stop></linearGradient></defs><g transform="translate(350, 451)"><path d="M-228.4 0C-230.4 -18.5 -232.5 -36.9 -222.6 -50.8C-212.7 -64.7 -190.8 -73.9 -180.2 -86.8C-169.6 -99.6 -170.2 -116 -165.7 -132.2C-161.3 -148.3 -151.7 -164.2 -137.2 -172C-122.6 -179.8 -103 -179.4 -86.8 -180.2C-70.5 -181 -57.5 -182.9 -43.6 -191.1C-29.7 -199.3 -14.8 -213.8 0 -228.4L0 0Z" fill="#157cf2"></path><path d="M-190.3 0C-192 -15.4 -193.8 -30.8 -185.5 -42.3C-177.3 -53.9 -159 -61.6 -150.2 -72.3C-141.3 -83 -141.8 -96.7 -138.1 -110.1C-134.4 -123.6 -126.4 -136.9 -114.3 -143.3C-102.2 -149.8 -85.9 -149.5 -72.3 -150.2C-58.8 -150.8 -47.9 -152.4 -36.3 -159.2C-24.7 -166.1 -12.4 -178.2 0 -190.3L0 0Z" fill="#0065e2"></path><path d="M-152.2 0C-153.6 -12.3 -155 -24.6 -148.4 -33.9C-141.8 -43.1 -127.2 -49.3 -120.1 -57.9C-113 -66.4 -113.5 -77.4 -110.5 -88.1C-107.5 -98.9 -101.2 -109.5 -91.4 -114.7C-81.7 -119.8 -68.7 -119.6 -57.9 -120.1C-47 -120.6 -38.4 -121.9 -29.1 -127.4C-19.8 -132.9 -9.9 -142.6 0 -152.2L0 0Z" fill="#004ed0"></path><path d="M-114.2 0C-115.2 -9.2 -116.3 -18.5 -111.3 -25.4C-106.4 -32.3 -95.4 -37 -90.1 -43.4C-84.8 -49.8 -85.1 -58 -82.9 -66.1C-80.6 -74.2 -75.9 -82.1 -68.6 -86C-61.3 -89.9 -51.5 -89.7 -43.4 -90.1C-35.3 -90.5 -28.8 -91.4 -21.8 -95.5C-14.8 -99.7 -7.4 -106.9 0 -114.2L0 0Z" fill="#0035bd"></path><path d="M-76.1 0C-76.8 -6.2 -77.5 -12.3 -74.2 -16.9C-70.9 -21.6 -63.6 -24.6 -60.1 -28.9C-56.5 -33.2 -56.7 -38.7 -55.2 -44.1C-53.8 -49.4 -50.6 -54.7 -45.7 -57.3C-40.9 -59.9 -34.3 -59.8 -28.9 -60.1C-23.5 -60.3 -19.2 -61 -14.5 -63.7C-9.9 -66.4 -4.9 -71.3 0 -76.1L0 0Z" fill="#0a18a9"></path><path d="M-38.1 0C-38.4 -3.1 -38.8 -6.2 -37.1 -8.5C-35.5 -10.8 -31.8 -12.3 -30 -14.5C-28.3 -16.6 -28.4 -19.3 -27.6 -22C-26.9 -24.7 -25.3 -27.4 -22.9 -28.7C-20.4 -30 -17.2 -29.9 -14.5 -30C-11.8 -30.2 -9.6 -30.5 -7.3 -31.8C-4.9 -33.2 -2.5 -35.6 0 -38.1L0 0Z" fill="#11009e"></path></g><g transform="translate(0, 0)"><path d="M228.4 0C216.7 14.5 205.1 29 203.8 46.5C202.5 64 211.5 84.6 205.7 99.1C199.9 113.6 179.3 122.1 162.6 129.7C146 137.3 133.4 144 121.6 152.5C109.8 160.9 98.9 171.2 86.8 180.2C74.7 189.2 61.4 196.9 46.7 204.7C32.1 212.6 16 220.5 0 228.4L0 0Z" fill="#157cf2"></path><path d="M190.3 0C180.6 12.1 170.9 24.2 169.8 38.8C168.7 53.4 176.3 70.5 171.4 82.6C166.6 94.7 149.4 101.7 135.5 108.1C121.6 114.4 111.1 120 101.3 127C91.5 134.1 82.4 142.7 72.3 150.2C62.2 157.7 51.2 164.1 38.9 170.6C26.7 177.1 13.4 183.7 0 190.3L0 0Z" fill="#0065e2"></path><path d="M152.2 0C144.5 9.7 136.7 19.3 135.8 31C135 42.7 141 56.4 137.2 66.1C133.3 75.7 119.5 81.4 108.4 86.5C97.3 91.5 88.9 96 81.1 101.6C73.2 107.3 65.9 114.1 57.9 120.1C49.8 126.1 40.9 131.3 31.2 136.5C21.4 141.7 10.7 147 0 152.2L0 0Z" fill="#004ed0"></path><path d="M114.2 0C108.4 7.2 102.5 14.5 101.9 23.3C101.2 32 105.8 42.3 102.9 49.5C100 56.8 89.6 61 81.3 64.8C73 68.6 66.7 72 60.8 76.2C54.9 80.5 49.4 85.6 43.4 90.1C37.3 94.6 30.7 98.5 23.4 102.4C16 106.3 8 110.2 0 114.2L0 0Z" fill="#0035bd"></path><path d="M76.1 0C72.2 4.8 68.4 9.7 67.9 15.5C67.5 21.3 70.5 28.2 68.6 33C66.6 37.9 59.8 40.7 54.2 43.2C48.7 45.8 44.5 48 40.5 50.8C36.6 53.6 33 57.1 28.9 60.1C24.9 63.1 20.5 65.6 15.6 68.2C10.7 70.9 5.3 73.5 0 76.1L0 0Z" fill="#0a18a9"></path><path d="M38.1 0C36.1 2.4 34.2 4.8 34 7.8C33.7 10.7 35.3 14.1 34.3 16.5C33.3 18.9 29.9 20.3 27.1 21.6C24.3 22.9 22.2 24 20.3 25.4C18.3 26.8 16.5 28.5 14.5 30C12.4 31.5 10.2 32.8 7.8 34.1C5.3 35.4 2.7 36.7 0 38.1L0 0Z" fill="#11009e"></path></g></svg>