<svg id="visual" viewBox="0 0 350 451" width="350" height="451" xmlns="http://www.w3.org/2000/svg" xmlns:xlink="http://www.w3.org/1999/xlink" version="1.1"><rect x="0" y="0" width="350" height="451" fill="#A8A89E"></rect><defs><linearGradient id="grad1_0" x1="0%" y1="100%" x2="100%" y2="0%"><stop offset="30%" stop-color="#ffffff" stop-opacity="1"></stop><stop offset="70%" stop-color="#ffffff" stop-opacity="1"></stop></linearGradient></defs><defs><linearGradient id="grad1_1" x1="0%" y1="100%" x2="100%" y2="0%"><stop offset="30%" stop-color="#ffffff" stop-opacity="1"></stop><stop offset="70%" stop-color="#f0f0ee" stop-opacity="1"></stop></linearGradient></defs><defs><linearGradient id="grad1_2" x1="0%" y1="100%" x2="100%" y2="0%"><stop offset="30%" stop-color="#e1e1de" stop-opacity="1"></stop><stop offset="70%" stop-color="#f0f0ee" stop-opacity="1"></stop></linearGradient></defs><defs><linearGradient id="grad1_3" x1="0%" y1="100%" x2="100%" y2="0%"><stop offset="30%" stop-color="#e1e1de" stop-opacity="1"></stop><stop offset="70%" stop-color="#d3d3cd" stop-opacity="1"></stop></linearGradient></defs><defs><linearGradient id="grad1_4" x1="0%" y1="100%" x2="100%" y2="0%"><stop offset="30%" stop-color="#c4c4bd" stop-opacity="1"></stop><stop offset="70%" stop-color="#d3d3cd" stop-opacity="1"></stop></linearGradient></defs><defs><linearGradient id="grad1_5" x1="0%" y1="100%" x2="100%" y2="0%"><stop offset="30%" stop-color="#c4c4bd" stop-opacity="1"></stop><stop offset="70%" stop-color="#b6b6ae" stop-opacity="1"></stop></linearGradient></defs><defs><linearGradient id="grad1_6" x1="0%" y1="100%" x2="100%" y2="0%"><stop offset="30%" stop-color="#a8a89e" stop-opacity="1"></stop><stop offset="70%" stop-color="#b6b6ae" stop-opacity="1"></stop></linearGradient></defs><defs><linearGradient id="grad2_0" x1="0%" y1="100%" x2="100%" y2="0%"><stop offset="30%" stop-color="#ffffff" stop-opacity="1"></stop><stop offset="70%" stop-color="#ffffff" stop-opacity="1"></stop></linearGradient></defs><defs><linearGradient id="grad2_1" x1="0%" y1="100%" x2="100%" y2="0%"><stop offset="30%" stop-color="#f0f0ee" stop-opacity="1"></stop><stop offset="70%" stop-color="#ffffff" stop-opacity="1"></stop></linearGradient></defs><defs><linearGradient id="grad2_2" x1="0%" y1="100%" x2="100%" y2="0%"><stop offset="30%" stop-color="#f0f0ee" stop-opacity="1"></stop><stop offset="70%" stop-color="#e1e1de" stop-opacity="1"></stop></linearGradient></defs><defs><linearGradient id="grad2_3" x1="0%" y1="100%" x2="100%" y2="0%"><stop offset="30%" stop-color="#d3d3cd" stop-opacity="1"></stop><stop offset="70%" stop-color="#e1e1de" stop-opacity="1"></stop></linearGradient></defs><defs><linearGradient id="grad2_4" x1="0%" y1="100%" x2="100%" y2="0%"><stop offset="30%" stop-color="#d3d3cd" stop-opacity="1"></stop><stop offset="70%" stop-color="#c4c4bd" stop-opacity="1"></stop></linearGradient></defs><defs><linearGradient id="grad2_5" x1="0%" y1="100%" x2="100%" y2="0%"><stop offset="30%" stop-color="#b6b6ae" stop-opacity="1"></stop><stop offset="70%" stop-color="#c4c4bd" stop-opacity="1"></stop></linearGradient></defs><defs><linearGradient id="grad2_6" x1="0%" y1="100%" x2="100%" y2="0%"><stop offset="30%" stop-color="#b6b6ae" stop-opacity="1"></stop><stop offset="70%" stop-color="#a8a89e" stop-opacity="1"></stop></linearGradient></defs><g transform="translate(350, 451)"><path d="M-199.8 0C-191.4 -9.6 -182.9 -19.2 -177.8 -28.2C-172.7 -37.1 -170.9 -45.4 -170.2 -55.3C-169.6 -65.2 -170.1 -76.7 -163.9 -83.5C-157.7 -90.4 -144.8 -92.6 -141.6 -102.9C-138.4 -113.2 -144.9 -131.6 -141.3 -141.3C-137.7 -151 -124 -151.9 -114 -156.9C-104 -162 -97.6 -171.1 -88.1 -172.9C-78.5 -174.7 -65.7 -169.2 -55.9 -172.1C-46.1 -175.1 -39.3 -186.6 -30.5 -192.6C-21.7 -198.6 -10.8 -199.2 0 -199.8L0 0Z" fill="#afafa6"></path><path d="M-171.3 0C-164 -8.2 -156.8 -16.5 -152.4 -24.1C-148 -31.8 -146.5 -38.9 -145.9 -47.4C-145.4 -55.9 -145.8 -65.7 -140.5 -71.6C-135.2 -77.5 -124.1 -79.3 -121.4 -88.2C-118.6 -97 -124.2 -112.8 -121.1 -121.1C-118 -129.4 -106.3 -130.2 -97.7 -134.5C-89.2 -138.8 -83.7 -146.6 -75.5 -148.2C-67.3 -149.7 -56.3 -145 -47.9 -147.5C-39.5 -150.1 -33.7 -159.9 -26.1 -165.1C-18.6 -170.2 -9.3 -170.8 0 -171.3L0 0Z" fill="#bdbdb5"></path><path d="M-142.7 0C-136.7 -6.9 -130.6 -13.7 -127 -20.1C-123.3 -26.5 -122 -32.4 -121.6 -39.5C-121.2 -46.6 -121.5 -54.8 -117.1 -59.7C-112.7 -64.6 -103.4 -66.1 -101.1 -73.5C-98.8 -80.8 -103.5 -94 -100.9 -100.9C-98.4 -107.8 -88.6 -108.5 -81.5 -112.1C-74.3 -115.7 -69.7 -122.2 -62.9 -123.5C-56.1 -124.8 -46.9 -120.8 -40 -123C-33 -125.1 -28.1 -133.3 -21.8 -137.6C-15.5 -141.9 -7.7 -142.3 0 -142.7L0 0Z" fill="#cbcbc5"></path><path d="M-114.2 0C-109.3 -5.5 -104.5 -11 -101.6 -16.1C-98.7 -21.2 -97.6 -26 -97.3 -31.6C-96.9 -37.3 -97.2 -43.8 -93.7 -47.7C-90.1 -51.6 -82.7 -52.9 -80.9 -58.8C-79.1 -64.7 -82.8 -75.2 -80.7 -80.7C-78.7 -86.3 -70.9 -86.8 -65.2 -89.7C-59.4 -92.6 -55.8 -97.7 -50.3 -98.8C-44.9 -99.8 -37.6 -96.7 -32 -98.4C-26.4 -100.1 -22.5 -106.6 -17.4 -110.1C-12.4 -113.5 -6.2 -113.8 0 -114.2L0 0Z" fill="#dadad6"></path><path d="M-85.6 0C-82 -4.1 -78.4 -8.2 -76.2 -12.1C-74 -15.9 -73.2 -19.5 -73 -23.7C-72.7 -27.9 -72.9 -32.9 -70.3 -35.8C-67.6 -38.7 -62.1 -39.7 -60.7 -44.1C-59.3 -48.5 -62.1 -56.4 -60.6 -60.6C-59 -64.7 -53.2 -65.1 -48.9 -67.3C-44.6 -69.4 -41.8 -73.3 -37.7 -74.1C-33.6 -74.9 -28.2 -72.5 -24 -73.8C-19.8 -75.1 -16.9 -80 -13.1 -82.5C-9.3 -85.1 -4.6 -85.4 0 -85.6L0 0Z" fill="#e9e9e6"></path><path d="M-57.1 0C-54.7 -2.7 -52.3 -5.5 -50.8 -8C-49.3 -10.6 -48.8 -13 -48.6 -15.8C-48.5 -18.6 -48.6 -21.9 -46.8 -23.9C-45.1 -25.8 -41.4 -26.4 -40.5 -29.4C-39.5 -32.3 -41.4 -37.6 -40.4 -40.4C-39.3 -43.1 -35.4 -43.4 -32.6 -44.8C-29.7 -46.3 -27.9 -48.9 -25.2 -49.4C-22.4 -49.9 -18.8 -48.3 -16 -49.2C-13.2 -50 -11.2 -53.3 -8.7 -55C-6.2 -56.7 -3.1 -56.9 0 -57.1L0 0Z" fill="#f8f7f7"></path><path d="M-28.5 0C-27.3 -1.4 -26.1 -2.7 -25.4 -4C-24.7 -5.3 -24.4 -6.5 -24.3 -7.9C-24.2 -9.3 -24.3 -11 -23.4 -11.9C-22.5 -12.9 -20.7 -13.2 -20.2 -14.7C-19.8 -16.2 -20.7 -18.8 -20.2 -20.2C-19.7 -21.6 -17.7 -21.7 -16.3 -22.4C-14.9 -23.1 -13.9 -24.4 -12.6 -24.7C-11.2 -25 -9.4 -24.2 -8 -24.6C-6.6 -25 -5.6 -26.7 -4.4 -27.5C-3.1 -28.4 -1.5 -28.5 0 -28.5L0 0Z" fill="#ffffff"></path></g><g transform="translate(0, 0)"><path d="M199.8 0C201.1 11.1 202.4 22.3 194.6 30.8C186.7 39.3 169.7 45.2 162.6 52.8C155.6 60.4 158.6 69.8 162.2 82.6C165.8 95.5 170 111.9 161.6 117.4C153.3 123 132.5 117.7 123 123C113.6 128.4 115.6 144.3 110.5 152.1C105.4 159.9 93.2 159.5 84 164.8C74.8 170.2 68.7 181.2 59.9 184.5C51.2 187.8 39.7 183.4 29.3 184.7C18.8 186 9.4 192.9 0 199.8L0 0Z" fill="#afafa6"></path><path d="M171.3 0C172.4 9.6 173.5 19.1 166.8 26.4C160 33.7 145.4 38.8 139.4 45.3C133.4 51.8 135.9 59.8 139 70.8C142.1 81.8 145.7 95.9 138.6 100.7C131.4 105.4 113.5 100.9 105.5 105.5C97.4 110 99.1 123.7 94.7 130.4C90.3 137 79.8 136.7 72 141.3C64.1 145.9 58.9 155.3 51.4 158.1C43.9 161 34 157.2 25.1 158.3C16.1 159.4 8.1 165.3 0 171.3L0 0Z" fill="#bdbdb5"></path><path d="M142.7 0C143.7 8 144.6 15.9 139 22C133.4 28.1 121.2 32.3 116.2 37.7C111.1 43.2 113.3 49.8 115.8 59C118.4 68.2 121.4 79.9 115.5 83.9C109.5 87.9 94.6 84.1 87.9 87.9C81.2 91.7 82.6 103.1 78.9 108.6C75.3 114.2 66.5 113.9 60 117.7C53.4 121.5 49.1 129.4 42.8 131.8C36.5 134.2 28.4 131 20.9 131.9C13.4 132.8 6.7 137.8 0 142.7L0 0Z" fill="#cbcbc5"></path><path d="M114.2 0C114.9 6.4 115.7 12.7 111.2 17.6C106.7 22.5 97 25.8 92.9 30.2C88.9 34.5 90.6 39.9 92.7 47.2C94.7 54.6 97.1 63.9 92.4 67.1C87.6 70.3 75.7 67.3 70.3 70.3C64.9 73.4 66.1 82.5 63.1 86.9C60.2 91.4 53.2 91.1 48 94.2C42.8 97.2 39.3 103.5 34.3 105.4C29.2 107.3 22.7 104.8 16.7 105.5C10.8 106.3 5.4 110.2 0 114.2L0 0Z" fill="#dadad6"></path><path d="M85.6 0C86.2 4.8 86.8 9.6 83.4 13.2C80 16.9 72.7 19.4 69.7 22.6C66.7 25.9 68 29.9 69.5 35.4C71 40.9 72.8 48 69.3 50.3C65.7 52.7 56.8 50.4 52.7 52.7C48.7 55 49.6 61.8 47.4 65.2C45.2 68.5 39.9 68.4 36 70.6C32.1 72.9 29.5 77.7 25.7 79.1C21.9 80.5 17 78.6 12.5 79.2C8.1 79.7 4 82.7 0 85.6L0 0Z" fill="#e9e9e6"></path><path d="M57.1 0C57.5 3.2 57.8 6.4 55.6 8.8C53.3 11.2 48.5 12.9 46.5 15.1C44.5 17.3 45.3 19.9 46.3 23.6C47.4 27.3 48.6 32 46.2 33.6C43.8 35.1 37.8 33.6 35.2 35.2C32.5 36.7 33 41.2 31.6 43.5C30.1 45.7 26.6 45.6 24 47.1C21.4 48.6 19.6 51.8 17.1 52.7C14.6 53.7 11.3 52.4 8.4 52.8C5.4 53.1 2.7 55.1 0 57.1L0 0Z" fill="#f8f7f7"></path><path d="M28.5 0C28.7 1.6 28.9 3.2 27.8 4.4C26.7 5.6 24.2 6.5 23.2 7.5C22.2 8.6 22.7 10 23.2 11.8C23.7 13.6 24.3 16 23.1 16.8C21.9 17.6 18.9 16.8 17.6 17.6C16.2 18.3 16.5 20.6 15.8 21.7C15.1 22.8 13.3 22.8 12 23.5C10.7 24.3 9.8 25.9 8.6 26.4C7.3 26.8 5.7 26.2 4.2 26.4C2.7 26.6 1.3 27.6 0 28.5L0 0Z" fill="#ffffff"></path></g></svg>