<svg id="visual" viewBox="0 0 350 450" width="350" height="450" xmlns="http://www.w3.org/2000/svg" xmlns:xlink="http://www.w3.org/1999/xlink" version="1.1"><rect x="0" y="0" width="350" height="450" fill="#ffffff"></rect><defs><linearGradient id="grad1_0" x1="0%" y1="100%" x2="100%" y2="0%"><stop offset="30%" stop-color="#3cc3fa" stop-opacity="1"></stop><stop offset="70%" stop-color="#3cc3fa" stop-opacity="1"></stop></linearGradient></defs><defs><linearGradient id="grad1_1" x1="0%" y1="100%" x2="100%" y2="0%"><stop offset="30%" stop-color="#3cc3fa" stop-opacity="1"></stop><stop offset="70%" stop-color="#93d7fc" stop-opacity="1"></stop></linearGradient></defs><defs><linearGradient id="grad1_2" x1="0%" y1="100%" x2="100%" y2="0%"><stop offset="30%" stop-color="#ccebfe" stop-opacity="1"></stop><stop offset="70%" stop-color="#93d7fc" stop-opacity="1"></stop></linearGradient></defs><defs><linearGradient id="grad1_3" x1="0%" y1="100%" x2="100%" y2="0%"><stop offset="30%" stop-color="#ccebfe" stop-opacity="1"></stop><stop offset="70%" stop-color="#ffffff" stop-opacity="1"></stop></linearGradient></defs><defs><linearGradient id="grad2_0" x1="0%" y1="100%" x2="100%" y2="0%"><stop offset="30%" stop-color="#3cc3fa" stop-opacity="1"></stop><stop offset="70%" stop-color="#3cc3fa" stop-opacity="1"></stop></linearGradient></defs><defs><linearGradient id="grad2_1" x1="0%" y1="100%" x2="100%" y2="0%"><stop offset="30%" stop-color="#93d7fc" stop-opacity="1"></stop><stop offset="70%" stop-color="#3cc3fa" stop-opacity="1"></stop></linearGradient></defs><defs><linearGradient id="grad2_2" x1="0%" y1="100%" x2="100%" y2="0%"><stop offset="30%" stop-color="#93d7fc" stop-opacity="1"></stop><stop offset="70%" stop-color="#ccebfe" stop-opacity="1"></stop></linearGradient></defs><defs><linearGradient id="grad2_3" x1="0%" y1="100%" x2="100%" y2="0%"><stop offset="30%" stop-color="#ffffff" stop-opacity="1"></stop><stop offset="70%" stop-color="#ccebfe" stop-opacity="1"></stop></linearGradient></defs><g transform="translate(350, 450)"><path d="M-233 0C-241 -35.7 -249 -71.4 -237 -98.2C-225 -124.9 -193 -142.8 -167.6 -167.6C-142.1 -192.4 -123.3 -224.2 -96.4 -232.8C-69.6 -241.4 -34.8 -226.7 0 -212L0 0Z" fill="#e6f5fe"></path><path d="M-174.7 0C-180.8 -26.8 -186.8 -53.6 -177.8 -73.6C-168.8 -93.7 -144.8 -107.1 -125.7 -125.7C-106.6 -144.3 -92.5 -168.2 -72.3 -174.6C-52.2 -181 -26.1 -170 0 -159L0 0Z" fill="#b1e1fd"></path><path d="M-116.5 0C-120.5 -17.9 -124.5 -35.7 -118.5 -49.1C-112.5 -62.5 -96.5 -71.4 -83.8 -83.8C-71.1 -96.2 -61.6 -112.1 -48.2 -116.4C-34.8 -120.7 -17.4 -113.3 0 -106L0 0Z" fill="#6fcdfb"></path><path d="M-58.2 0C-60.3 -8.9 -62.3 -17.9 -59.3 -24.5C-56.3 -31.2 -48.3 -35.7 -41.9 -41.9C-35.5 -48.1 -30.8 -56.1 -24.1 -58.2C-17.4 -60.3 -8.7 -56.7 0 -53L0 0Z" fill="#3cc3fa"></path></g><g transform="translate(0, 0)"><path d="M214 0C218.8 32.2 223.6 64.4 212.5 88C201.4 111.6 174.5 126.6 154.9 154.9C135.2 183.1 122.8 224.8 98.2 237C73.6 249.3 36.8 232.1 0 215L0 0Z" fill="#e6f5fe"></path><path d="M160.5 0C164.1 24.2 167.7 48.3 159.4 66C151.1 83.7 130.9 94.9 116.1 116.1C101.4 137.4 92.1 168.6 73.6 177.8C55.2 186.9 27.6 174.1 0 161.3L0 0Z" fill="#b1e1fd"></path><path d="M107 0C109.4 16.1 111.8 32.2 106.2 44C100.7 55.8 87.3 63.3 77.4 77.4C67.6 91.6 61.4 112.4 49.1 118.5C36.8 124.6 18.4 116.1 0 107.5L0 0Z" fill="#6fcdfb"></path><path d="M53.5 0C54.7 8.1 55.9 16.1 53.1 22C50.4 27.9 43.6 31.6 38.7 38.7C33.8 45.8 30.7 56.2 24.5 59.3C18.4 62.3 9.2 58 0 53.8L0 0Z" fill="#3cc3fa"></path></g></svg>