<svg id="visual" viewBox="0 0 350 451" width="350" height="451" xmlns="http://www.w3.org/2000/svg" xmlns:xlink="http://www.w3.org/1999/xlink" version="1.1"><rect x="0" y="0" width="350" height="451" fill="#deb4ef"></rect><defs><linearGradient id="grad1_0" x1="0%" y1="100%" x2="100%" y2="0%"><stop offset="30%" stop-color="#75009e" stop-opacity="1"></stop><stop offset="70%" stop-color="#75009e" stop-opacity="1"></stop></linearGradient></defs><defs><linearGradient id="grad1_1" x1="0%" y1="100%" x2="100%" y2="0%"><stop offset="30%" stop-color="#75009e" stop-opacity="1"></stop><stop offset="70%" stop-color="#8b35ae" stop-opacity="1"></stop></linearGradient></defs><defs><linearGradient id="grad1_2" x1="0%" y1="100%" x2="100%" y2="0%"><stop offset="30%" stop-color="#a057bf" stop-opacity="1"></stop><stop offset="70%" stop-color="#8b35ae" stop-opacity="1"></stop></linearGradient></defs><defs><linearGradient id="grad1_3" x1="0%" y1="100%" x2="100%" y2="0%"><stop offset="30%" stop-color="#a057bf" stop-opacity="1"></stop><stop offset="70%" stop-color="#b576cf" stop-opacity="1"></stop></linearGradient></defs><defs><linearGradient id="grad1_4" x1="0%" y1="100%" x2="100%" y2="0%"><stop offset="30%" stop-color="#ca95df" stop-opacity="1"></stop><stop offset="70%" stop-color="#b576cf" stop-opacity="1"></stop></linearGradient></defs><defs><linearGradient id="grad1_5" x1="0%" y1="100%" x2="100%" y2="0%"><stop offset="30%" stop-color="#ca95df" stop-opacity="1"></stop><stop offset="70%" stop-color="#deb4ef" stop-opacity="1"></stop></linearGradient></defs><defs><linearGradient id="grad2_0" x1="0%" y1="100%" x2="100%" y2="0%"><stop offset="30%" stop-color="#75009e" stop-opacity="1"></stop><stop offset="70%" stop-color="#75009e" stop-opacity="1"></stop></linearGradient></defs><defs><linearGradient id="grad2_1" x1="0%" y1="100%" x2="100%" y2="0%"><stop offset="30%" stop-color="#8b35ae" stop-opacity="1"></stop><stop offset="70%" stop-color="#75009e" stop-opacity="1"></stop></linearGradient></defs><defs><linearGradient id="grad2_2" x1="0%" y1="100%" x2="100%" y2="0%"><stop offset="30%" stop-color="#8b35ae" stop-opacity="1"></stop><stop offset="70%" stop-color="#a057bf" stop-opacity="1"></stop></linearGradient></defs><defs><linearGradient id="grad2_3" x1="0%" y1="100%" x2="100%" y2="0%"><stop offset="30%" stop-color="#b576cf" stop-opacity="1"></stop><stop offset="70%" stop-color="#a057bf" stop-opacity="1"></stop></linearGradient></defs><defs><linearGradient id="grad2_4" x1="0%" y1="100%" x2="100%" y2="0%"><stop offset="30%" stop-color="#b576cf" stop-opacity="1"></stop><stop offset="70%" stop-color="#ca95df" stop-opacity="1"></stop></linearGradient></defs><defs><linearGradient id="grad2_5" x1="0%" y1="100%" x2="100%" y2="0%"><stop offset="30%" stop-color="#deb4ef" stop-opacity="1"></stop><stop offset="70%" stop-color="#ca95df" stop-opacity="1"></stop></linearGradient></defs><g transform="translate(350, 451)"><path d="M-215 0C-207.5 -12.9 -199.9 -25.9 -195.2 -38.8C-190.4 -51.8 -188.5 -64.7 -182.9 -75.8C-177.3 -86.8 -168.1 -95.9 -163 -108.9C-157.9 -121.9 -156.9 -138.8 -149.2 -149.2C-141.5 -159.6 -127.1 -163.4 -116.7 -174.6C-106.2 -185.9 -99.6 -204.6 -87.4 -211C-75.2 -217.4 -57.3 -211.4 -41.7 -209.9C-26.2 -208.3 -13.1 -211.2 0 -214L0 0Z" fill="#d4a4e7"></path><path d="M-179.2 0C-172.9 -10.8 -166.6 -21.6 -162.6 -32.4C-158.7 -43.1 -157.1 -54 -152.4 -63.1C-147.8 -72.3 -140.1 -79.9 -135.8 -90.7C-131.5 -101.6 -130.7 -115.7 -124.3 -124.3C-117.9 -133 -106 -136.1 -97.2 -145.5C-88.5 -154.9 -83 -170.5 -72.8 -175.8C-62.6 -181.1 -47.7 -176.2 -34.8 -174.9C-21.9 -173.6 -10.9 -176 0 -178.3L0 0Z" fill="#bf85d7"></path><path d="M-143.3 0C-138.3 -8.6 -133.3 -17.2 -130.1 -25.9C-127 -34.5 -125.7 -43.2 -122 -50.5C-118.2 -57.9 -112.1 -63.9 -108.6 -72.6C-105.2 -81.3 -104.6 -92.6 -99.5 -99.5C-94.3 -106.4 -84.8 -108.9 -77.8 -116.4C-70.8 -123.9 -66.4 -136.4 -58.3 -140.6C-50.1 -144.9 -38.2 -141 -27.8 -139.9C-17.5 -138.9 -8.7 -140.8 0 -142.7L0 0Z" fill="#ab66c7"></path><path d="M-107.5 0C-103.7 -6.5 -100 -12.9 -97.6 -19.4C-95.2 -25.9 -94.3 -32.4 -91.5 -37.9C-88.7 -43.4 -84 -47.9 -81.5 -54.4C-78.9 -61 -78.4 -69.4 -74.6 -74.6C-70.8 -79.8 -63.6 -81.7 -58.3 -87.3C-53.1 -92.9 -49.8 -102.3 -43.7 -105.5C-37.6 -108.7 -28.6 -105.7 -20.9 -104.9C-13.1 -104.2 -6.6 -105.6 0 -107L0 0Z" fill="#9646b7"></path><path d="M-71.7 0C-69.2 -4.3 -66.6 -8.6 -65.1 -12.9C-63.5 -17.3 -62.8 -21.6 -61 -25.3C-59.1 -28.9 -56 -32 -54.3 -36.3C-52.6 -40.6 -52.3 -46.3 -49.7 -49.7C-47.2 -53.2 -42.4 -54.5 -38.9 -58.2C-35.4 -62 -33.2 -68.2 -29.1 -70.3C-25.1 -72.5 -19.1 -70.5 -13.9 -70C-8.7 -69.4 -4.4 -70.4 0 -71.3L0 0Z" fill="#8021a6"></path><path d="M-35.8 0C-34.6 -2.2 -33.3 -4.3 -32.5 -6.5C-31.7 -8.6 -31.4 -10.8 -30.5 -12.6C-29.6 -14.5 -28 -16 -27.2 -18.1C-26.3 -20.3 -26.1 -23.1 -24.9 -24.9C-23.6 -26.6 -21.2 -27.2 -19.4 -29.1C-17.7 -31 -16.6 -34.1 -14.6 -35.2C-12.5 -36.2 -9.5 -35.2 -7 -35C-4.4 -34.7 -2.2 -35.2 0 -35.7L0 0Z" fill="#75009e"></path></g><g transform="translate(0, 0)"><path d="M209 0C203.4 12.7 197.8 25.5 196.2 39C194.5 52.6 196.9 67 194.9 80.7C193 94.5 186.6 107.7 177.9 118.9C169.2 130.1 158.2 139.4 147.1 147.1C135.9 154.8 124.7 160.8 115.6 172.9C106.4 185.1 99.4 203.2 87.4 211C75.4 218.7 58.3 216.2 42.9 215.8C27.5 215.4 13.8 217.2 0 219L0 0Z" fill="#d4a4e7"></path><path d="M174.2 0C169.5 10.6 164.8 21.2 163.5 32.5C162.1 43.8 164.1 55.8 162.4 67.3C160.8 78.8 155.5 89.7 148.3 99.1C141 108.4 131.8 116.2 122.6 122.6C113.3 129 103.9 134 96.3 144.1C88.7 154.2 82.8 169.3 72.8 175.8C62.8 182.3 48.6 180.1 35.8 179.8C22.9 179.5 11.5 181 0 182.5L0 0Z" fill="#bf85d7"></path><path d="M139.3 0C135.6 8.5 131.8 17 130.8 26C129.7 35.1 131.3 44.6 130 53.8C128.6 63 124.4 71.8 118.6 79.3C112.8 86.7 105.5 92.9 98.1 98.1C90.6 103.2 83.1 107.2 77 115.3C71 123.4 66.3 135.5 58.3 140.6C50.2 145.8 38.9 144.1 28.6 143.8C18.3 143.6 9.2 144.8 0 146L0 0Z" fill="#ab66c7"></path><path d="M104.5 0C101.7 6.4 98.9 12.7 98.1 19.5C97.3 26.3 98.5 33.5 97.5 40.4C96.5 47.3 93.3 53.8 89 59.4C84.6 65.1 79.1 69.7 73.5 73.5C68 77.4 62.3 80.4 57.8 86.5C53.2 92.5 49.7 101.6 43.7 105.5C37.7 109.4 29.2 108.1 21.5 107.9C13.8 107.7 6.9 108.6 0 109.5L0 0Z" fill="#9646b7"></path><path d="M69.7 0C67.8 4.2 65.9 8.5 65.4 13C64.8 17.5 65.6 22.3 65 26.9C64.3 31.5 62.2 35.9 59.3 39.6C56.4 43.4 52.7 46.5 49 49C45.3 51.6 41.6 53.6 38.5 57.6C35.5 61.7 33.1 67.7 29.1 70.3C25.1 72.9 19.4 72.1 14.3 71.9C9.2 71.8 4.6 72.4 0 73L0 0Z" fill="#8021a6"></path><path d="M34.8 0C33.9 2.1 33 4.2 32.7 6.5C32.4 8.8 32.8 11.2 32.5 13.5C32.2 15.8 31.1 17.9 29.7 19.8C28.2 21.7 26.4 23.2 24.5 24.5C22.7 25.8 20.8 26.8 19.3 28.8C17.7 30.8 16.6 33.9 14.6 35.2C12.6 36.5 9.7 36 7.2 36C4.6 35.9 2.3 36.2 0 36.5L0 0Z" fill="#75009e"></path></g></svg>