<svg id="visual" viewBox="0 0 350 451" width="350" height="451" xmlns="http://www.w3.org/2000/svg" xmlns:xlink="http://www.w3.org/1999/xlink" version="1.1"><rect x="0" y="0" width="350" height="451" fill="#efb4b4"></rect><defs><linearGradient id="grad1_0" x1="0%" y1="100%" x2="100%" y2="0%"><stop offset="30%" stop-color="#9e0000" stop-opacity="1"></stop><stop offset="70%" stop-color="#9e0000" stop-opacity="1"></stop></linearGradient></defs><defs><linearGradient id="grad1_1" x1="0%" y1="100%" x2="100%" y2="0%"><stop offset="30%" stop-color="#9e0000" stop-opacity="1"></stop><stop offset="70%" stop-color="#b43428" stop-opacity="1"></stop></linearGradient></defs><defs><linearGradient id="grad1_2" x1="0%" y1="100%" x2="100%" y2="0%"><stop offset="30%" stop-color="#c7554c" stop-opacity="1"></stop><stop offset="70%" stop-color="#b43428" stop-opacity="1"></stop></linearGradient></defs><defs><linearGradient id="grad1_3" x1="0%" y1="100%" x2="100%" y2="0%"><stop offset="30%" stop-color="#c7554c" stop-opacity="1"></stop><stop offset="70%" stop-color="#d7756f" stop-opacity="1"></stop></linearGradient></defs><defs><linearGradient id="grad1_4" x1="0%" y1="100%" x2="100%" y2="0%"><stop offset="30%" stop-color="#e49492" stop-opacity="1"></stop><stop offset="70%" stop-color="#d7756f" stop-opacity="1"></stop></linearGradient></defs><defs><linearGradient id="grad1_5" x1="0%" y1="100%" x2="100%" y2="0%"><stop offset="30%" stop-color="#e49492" stop-opacity="1"></stop><stop offset="70%" stop-color="#efb4b4" stop-opacity="1"></stop></linearGradient></defs><defs><linearGradient id="grad2_0" x1="0%" y1="100%" x2="100%" y2="0%"><stop offset="30%" stop-color="#9e0000" stop-opacity="1"></stop><stop offset="70%" stop-color="#9e0000" stop-opacity="1"></stop></linearGradient></defs><defs><linearGradient id="grad2_1" x1="0%" y1="100%" x2="100%" y2="0%"><stop offset="30%" stop-color="#b43428" stop-opacity="1"></stop><stop offset="70%" stop-color="#9e0000" stop-opacity="1"></stop></linearGradient></defs><defs><linearGradient id="grad2_2" x1="0%" y1="100%" x2="100%" y2="0%"><stop offset="30%" stop-color="#b43428" stop-opacity="1"></stop><stop offset="70%" stop-color="#c7554c" stop-opacity="1"></stop></linearGradient></defs><defs><linearGradient id="grad2_3" x1="0%" y1="100%" x2="100%" y2="0%"><stop offset="30%" stop-color="#d7756f" stop-opacity="1"></stop><stop offset="70%" stop-color="#c7554c" stop-opacity="1"></stop></linearGradient></defs><defs><linearGradient id="grad2_4" x1="0%" y1="100%" x2="100%" y2="0%"><stop offset="30%" stop-color="#d7756f" stop-opacity="1"></stop><stop offset="70%" stop-color="#e49492" stop-opacity="1"></stop></linearGradient></defs><defs><linearGradient id="grad2_5" x1="0%" y1="100%" x2="100%" y2="0%"><stop offset="30%" stop-color="#efb4b4" stop-opacity="1"></stop><stop offset="70%" stop-color="#e49492" stop-opacity="1"></stop></linearGradient></defs><g transform="translate(350, 451)"><path d="M-242.6 0C-228 -15 -213.4 -30 -209.6 -47.8C-205.9 -65.7 -213 -86.5 -203.6 -98.1C-194.2 -109.6 -168.3 -112 -157.1 -125.3C-146 -138.6 -149.6 -162.8 -142.8 -179C-135.9 -195.3 -118.7 -203.6 -102.4 -212.6C-86.1 -221.7 -70.9 -231.4 -54 -236.5C-37.1 -241.7 -18.5 -242.1 0 -242.6L0 0Z" fill="#eaa4a3"></path><path d="M-202.2 0C-190 -12.5 -177.8 -25 -174.7 -39.9C-171.6 -54.8 -177.5 -72.1 -169.7 -81.7C-161.9 -91.4 -140.3 -93.4 -131 -104.4C-121.7 -115.5 -124.7 -135.7 -119 -149.2C-113.3 -162.7 -98.9 -169.7 -85.3 -177.2C-71.8 -184.7 -59.1 -192.9 -45 -197.1C-30.9 -201.4 -15.5 -201.8 0 -202.2L0 0Z" fill="#de8580"></path><path d="M-161.7 0C-152 -10 -142.2 -20 -139.7 -31.9C-137.2 -43.8 -142 -57.7 -135.7 -65.4C-129.5 -73.1 -112.2 -74.7 -104.8 -83.5C-97.3 -92.4 -99.7 -108.5 -95.2 -119.4C-90.6 -130.2 -79.1 -135.7 -68.3 -141.8C-57.4 -147.8 -47.3 -154.3 -36 -157.7C-24.7 -161.1 -12.4 -161.4 0 -161.7L0 0Z" fill="#cf655d"></path><path d="M-121.3 0C-114 -7.5 -106.7 -15 -104.8 -23.9C-102.9 -32.9 -106.5 -43.2 -101.8 -49C-97.1 -54.8 -84.2 -56 -78.6 -62.7C-73 -69.3 -74.8 -81.4 -71.4 -89.5C-68 -97.6 -59.3 -101.8 -51.2 -106.3C-43.1 -110.8 -35.4 -115.7 -27 -118.3C-18.5 -120.8 -9.3 -121.1 0 -121.3L0 0Z" fill="#be453a"></path><path d="M-80.9 0C-76 -5 -71.1 -10 -69.9 -15.9C-68.6 -21.9 -71 -28.8 -67.9 -32.7C-64.7 -36.5 -56.1 -37.3 -52.4 -41.8C-48.7 -46.2 -49.9 -54.3 -47.6 -59.7C-45.3 -65.1 -39.6 -67.9 -34.1 -70.9C-28.7 -73.9 -23.6 -77.1 -18 -78.8C-12.4 -80.6 -6.2 -80.7 0 -80.9L0 0Z" fill="#a92016"></path><path d="M-40.4 0C-38 -2.5 -35.6 -5 -34.9 -8C-34.3 -11 -35.5 -14.4 -33.9 -16.3C-32.4 -18.3 -28.1 -18.7 -26.2 -20.9C-24.3 -23.1 -24.9 -27.1 -23.8 -29.8C-22.7 -32.5 -19.8 -33.9 -17.1 -35.4C-14.4 -36.9 -11.8 -38.6 -9 -39.4C-6.2 -40.3 -3.1 -40.4 0 -40.4L0 0Z" fill="#9e0000"></path></g><g transform="translate(0, 0)"><path d="M242.6 0C230.6 15.7 218.5 31.4 216.4 49.4C214.3 67.4 222.2 87.9 218.6 105.3C215 122.7 199.8 137.1 182.9 145.9C166.1 154.7 147.5 158 133.4 167.3C119.3 176.6 109.7 192 96.3 200C82.9 208 65.6 208.6 49 214.5C32.3 220.4 16.1 231.5 0 242.6L0 0Z" fill="#eaa4a3"></path><path d="M202.2 0C192.1 13.1 182.1 26.1 180.4 41.2C178.6 56.2 185.2 73.2 182.2 87.7C179.1 102.2 166.5 114.2 152.5 121.6C138.4 128.9 122.9 131.7 111.2 139.4C99.5 147.2 91.5 160 80.3 166.7C69.1 173.3 54.7 173.8 40.8 178.7C26.9 183.6 13.4 192.9 0 202.2L0 0Z" fill="#de8580"></path><path d="M161.7 0C153.7 10.5 145.7 20.9 144.3 32.9C142.9 45 148.2 58.6 145.7 70.2C143.3 81.8 133.2 91.4 122 97.3C110.7 103.1 98.3 105.3 89 111.5C79.6 117.8 73.2 128 64.2 133.3C55.3 138.7 43.8 139.1 32.6 143C21.5 146.9 10.8 154.3 0 161.7L0 0Z" fill="#cf655d"></path><path d="M121.3 0C115.3 7.8 109.3 15.7 108.2 24.7C107.2 33.7 111.1 43.9 109.3 52.6C107.5 61.3 99.9 68.5 91.5 72.9C83 77.4 73.8 79 66.7 83.7C59.7 88.3 54.9 96 48.2 100C41.4 104 32.8 104.3 24.5 107.2C16.1 110.2 8.1 115.7 0 121.3L0 0Z" fill="#be453a"></path><path d="M80.9 0C76.9 5.2 72.8 10.5 72.1 16.5C71.4 22.5 74.1 29.3 72.9 35.1C71.7 40.9 66.6 45.7 61 48.6C55.4 51.6 49.2 52.7 44.5 55.8C39.8 58.9 36.6 64 32.1 66.7C27.6 69.3 21.9 69.5 16.3 71.5C10.8 73.5 5.4 77.2 0 80.9L0 0Z" fill="#a92016"></path><path d="M40.4 0C38.4 2.6 36.4 5.2 36.1 8.2C35.7 11.2 37 14.6 36.4 17.5C35.8 20.4 33.3 22.8 30.5 24.3C27.7 25.8 24.6 26.3 22.2 27.9C19.9 29.4 18.3 32 16.1 33.3C13.8 34.7 10.9 34.8 8.2 35.7C5.4 36.7 2.7 38.6 0 40.4L0 0Z" fill="#9e0000"></path></g></svg>