<svg id="visual" viewBox="0 0 350 451" width="350" height="451" xmlns="http://www.w3.org/2000/svg" xmlns:xlink="http://www.w3.org/1999/xlink" version="1.1"><rect x="0" y="0" width="350" height="451" fill="#ebebeb"></rect><defs><linearGradient id="grad1_0" x1="0%" y1="100%" x2="100%" y2="0%"><stop offset="30%" stop-color="#d3d3d3" stop-opacity="1"></stop><stop offset="70%" stop-color="#d3d3d3" stop-opacity="1"></stop></linearGradient></defs><defs><linearGradient id="grad1_1" x1="0%" y1="100%" x2="100%" y2="0%"><stop offset="30%" stop-color="#d3d3d3" stop-opacity="1"></stop><stop offset="70%" stop-color="#d8d8d8" stop-opacity="1"></stop></linearGradient></defs><defs><linearGradient id="grad1_2" x1="0%" y1="100%" x2="100%" y2="0%"><stop offset="30%" stop-color="#dddddd" stop-opacity="1"></stop><stop offset="70%" stop-color="#d8d8d8" stop-opacity="1"></stop></linearGradient></defs><defs><linearGradient id="grad1_3" x1="0%" y1="100%" x2="100%" y2="0%"><stop offset="30%" stop-color="#dddddd" stop-opacity="1"></stop><stop offset="70%" stop-color="#e1e1e1" stop-opacity="1"></stop></linearGradient></defs><defs><linearGradient id="grad1_4" x1="0%" y1="100%" x2="100%" y2="0%"><stop offset="30%" stop-color="#e6e6e6" stop-opacity="1"></stop><stop offset="70%" stop-color="#e1e1e1" stop-opacity="1"></stop></linearGradient></defs><defs><linearGradient id="grad1_5" x1="0%" y1="100%" x2="100%" y2="0%"><stop offset="30%" stop-color="#e6e6e6" stop-opacity="1"></stop><stop offset="70%" stop-color="#ebebeb" stop-opacity="1"></stop></linearGradient></defs><defs><linearGradient id="grad2_0" x1="0%" y1="100%" x2="100%" y2="0%"><stop offset="30%" stop-color="#d3d3d3" stop-opacity="1"></stop><stop offset="70%" stop-color="#d3d3d3" stop-opacity="1"></stop></linearGradient></defs><defs><linearGradient id="grad2_1" x1="0%" y1="100%" x2="100%" y2="0%"><stop offset="30%" stop-color="#d8d8d8" stop-opacity="1"></stop><stop offset="70%" stop-color="#d3d3d3" stop-opacity="1"></stop></linearGradient></defs><defs><linearGradient id="grad2_2" x1="0%" y1="100%" x2="100%" y2="0%"><stop offset="30%" stop-color="#d8d8d8" stop-opacity="1"></stop><stop offset="70%" stop-color="#dddddd" stop-opacity="1"></stop></linearGradient></defs><defs><linearGradient id="grad2_3" x1="0%" y1="100%" x2="100%" y2="0%"><stop offset="30%" stop-color="#e1e1e1" stop-opacity="1"></stop><stop offset="70%" stop-color="#dddddd" stop-opacity="1"></stop></linearGradient></defs><defs><linearGradient id="grad2_4" x1="0%" y1="100%" x2="100%" y2="0%"><stop offset="30%" stop-color="#e1e1e1" stop-opacity="1"></stop><stop offset="70%" stop-color="#e6e6e6" stop-opacity="1"></stop></linearGradient></defs><defs><linearGradient id="grad2_5" x1="0%" y1="100%" x2="100%" y2="0%"><stop offset="30%" stop-color="#ebebeb" stop-opacity="1"></stop><stop offset="70%" stop-color="#e6e6e6" stop-opacity="1"></stop></linearGradient></defs><g transform="translate(350, 451)"><path d="M-256.9 0C-255.4 -23.2 -253.9 -46.4 -244.4 -65.5C-234.9 -84.6 -217.4 -99.7 -207 -119.5C-196.5 -139.3 -193.1 -163.9 -178.9 -178.9C-164.7 -193.9 -139.6 -199.2 -118 -204.4C-96.4 -209.6 -78.4 -214.8 -59.3 -221.2C-40.2 -227.6 -20.1 -235.3 0 -243L0 0Z" fill="#e9e9e9"></path><path d="M-214.1 0C-212.8 -19.3 -211.6 -38.6 -203.6 -54.6C-195.7 -70.5 -181.2 -83.1 -172.5 -99.6C-163.8 -116.1 -160.9 -136.6 -149.1 -149.1C-137.2 -161.5 -116.3 -166 -98.3 -170.3C-80.4 -174.7 -65.3 -179 -49.4 -184.3C-33.5 -189.7 -16.7 -196.1 0 -202.5L0 0Z" fill="#e4e4e4"></path><path d="M-171.3 0C-170.3 -15.5 -169.2 -30.9 -162.9 -43.7C-156.6 -56.4 -144.9 -66.4 -138 -79.7C-131 -92.9 -128.8 -109.3 -119.3 -119.3C-109.8 -129.2 -93.1 -132.8 -78.7 -136.3C-64.3 -139.7 -52.2 -143.2 -39.5 -147.5C-26.8 -151.7 -13.4 -156.9 0 -162L0 0Z" fill="#dfdfdf"></path><path d="M-128.4 0C-127.7 -11.6 -126.9 -23.2 -122.2 -32.7C-117.4 -42.3 -108.7 -49.8 -103.5 -59.8C-98.3 -69.7 -96.6 -82 -89.4 -89.4C-82.3 -96.9 -69.8 -99.6 -59 -102.2C-48.2 -104.8 -39.2 -107.4 -29.6 -110.6C-20.1 -113.8 -10 -117.7 0 -121.5L0 0Z" fill="#dadada"></path><path d="M-85.6 0C-85.1 -7.7 -84.6 -15.5 -81.5 -21.8C-78.3 -28.2 -72.5 -33.2 -69 -39.8C-65.5 -46.4 -64.4 -54.6 -59.6 -59.6C-54.9 -64.6 -46.5 -66.4 -39.3 -68.1C-32.1 -69.9 -26.1 -71.6 -19.8 -73.7C-13.4 -75.9 -6.7 -78.4 0 -81L0 0Z" fill="#d5d5d5"></path><path d="M-42.8 0C-42.6 -3.9 -42.3 -7.7 -40.7 -10.9C-39.1 -14.1 -36.2 -16.6 -34.5 -19.9C-32.8 -23.2 -32.2 -27.3 -29.8 -29.8C-27.4 -32.3 -23.3 -33.2 -19.7 -34.1C-16.1 -34.9 -13.1 -35.8 -9.9 -36.9C-6.7 -37.9 -3.3 -39.2 0 -40.5L0 0Z" fill="#d3d3d3"></path></g><g transform="translate(0, 0)"><path d="M247 0C240.9 20.2 234.8 40.4 230.9 61.9C226.9 83.3 225.1 105.9 214.8 124C204.4 142.1 185.5 155.6 169 169C152.5 182.4 138.3 195.8 122 211.3C105.7 226.8 87.2 244.5 66.5 248.1C45.8 251.8 22.9 241.4 0 231L0 0Z" fill="#e9e9e9"></path><path d="M205.8 0C200.8 16.8 195.7 33.7 192.4 51.5C189.1 69.4 187.6 88.3 179 103.3C170.4 118.4 154.6 129.6 140.8 140.8C127.1 152 115.3 163.2 101.7 176.1C88.1 189 72.7 203.8 55.4 206.8C38.2 209.8 19.1 201.2 0 192.5L0 0Z" fill="#e4e4e4"></path><path d="M164.7 0C160.6 13.5 156.5 27 153.9 41.2C151.3 55.5 150.1 70.6 143.2 82.7C136.3 94.7 123.7 103.7 112.7 112.7C101.6 121.6 92.2 130.5 81.3 140.9C70.5 151.2 58.1 163 44.3 165.4C30.5 167.9 15.3 160.9 0 154L0 0Z" fill="#dfdfdf"></path><path d="M123.5 0C120.5 10.1 117.4 20.2 115.4 30.9C113.5 41.6 112.6 53 107.4 62C102.2 71 92.8 77.8 84.5 84.5C76.2 91.2 69.2 97.9 61 105.7C52.8 113.4 43.6 122.3 33.2 124.1C22.9 125.9 11.4 120.7 0 115.5L0 0Z" fill="#dadada"></path><path d="M82.3 0C80.3 6.7 78.3 13.5 77 20.6C75.6 27.8 75 35.3 71.6 41.3C68.1 47.4 61.8 51.9 56.3 56.3C50.8 60.8 46.1 65.3 40.7 70.4C35.2 75.6 29.1 81.5 22.2 82.7C15.3 83.9 7.6 80.5 0 77L0 0Z" fill="#d5d5d5"></path><path d="M41.2 0C40.2 3.4 39.1 6.7 38.5 10.3C37.8 13.9 37.5 17.7 35.8 20.7C34.1 23.7 30.9 25.9 28.2 28.2C25.4 30.4 23.1 32.6 20.3 35.2C17.6 37.8 14.5 40.8 11.1 41.4C7.6 42 3.8 40.2 0 38.5L0 0Z" fill="#d3d3d3"></path></g></svg>